# xmcd
#
# Track frame offsets:
#	150
#	14539
#	27383
#	40092
#	50507
#	62568
#	75902
#	88181
#	106084
#	116812
#	131711
#	149393
#
# Disc length: 2165 seconds
#
# Revision: 0
# Processed by: cddbd v1.5.1PL2 Copyright (c) Steve Scherf et al.
# Submitted via: audiograbber 1.83.01
#
DISCID=9d08730c
DTITLE=Flophouse String Band - Flophouse String Band
DYEAR=1983
DGENRE=Country
TTITLE0=Lord I Hope This Day Is Good
TTITLE1=Listen To The Radio
TTITLE2=He's In The Jailhouse, Now
TTITLE3=Folsome Prison Blues
TTITLE4=Jambalaya
TTITLE5=Ring Of Fire
TTITLE6=Country Roads
TTITLE7=Peaceful Easy Feeling
TTITLE8=Oh, Lonesome Me
TTITLE9=Tulsa Time
TTITLE10=Detroit City
TTITLE11=San Quentin
EXTD=
EXTT0=
EXTT1=
EXTT2=
EXTT3=
EXTT4=
EXTT5=
EXTT6=
EXTT7=
EXTT8=
EXTT9=
EXTT10=
EXTT11=
PLAYORDER=
